<?xml version="1.0" standalone="no"?>
<!DOCTYPE svg PUBLIC "-//W3C//DTD SVG 20010904//EN"
 "http://www.w3.org/TR/2001/REC-SVG-20010904/DTD/svg10.dtd">
<svg version="1.0" xmlns="http://www.w3.org/2000/svg"
 width="260.000000pt" height="260.000000pt" viewBox="0 0 260.000000 260.000000"
 preserveAspectRatio="xMidYMid meet">
<metadata>
Created by potrace 1.11, written by Peter Selinger 2001-2013
</metadata>
<g transform="translate(0.000000,260.000000) scale(0.100000,-0.100000)"
fill="#000000" stroke="none">
<path d="M1667 1730 c-113 -19 -232 -113 -283 -224 -36 -79 -51 -196 -36 -290
39 -253 250 -391 523 -343 47 8 107 24 133 35 l46 21 0 120 c0 112 1 121 19
121 26 0 43 24 39 57 l-3 28 -176 3 c-151 2 -178 0 -189 -13 -10 -12 -11 -24
-4 -43 9 -27 11 -27 112 -30 l102 -3 0 -83 0 -84 -62 -21 c-167 -56 -321 6
-391 157 -19 41 -22 64 -21 172 0 136 7 159 64 238 61 85 207 120 301 72 39
-20 99 -91 99 -116 0 -21 44 -46 66 -37 31 11 34 23 34 130 0 79 -3 105 -16
117 -19 20 -43 20 -71 1 -19 -13 -29 -13 -99 5 -82 21 -110 23 -187 10z"/>
<path d="M503 1699 c-16 -16 -17 -51 -1 -67 7 -7 31 -12 55 -12 l43 0 0 -320
0 -320 -36 0 c-52 0 -74 -15 -74 -51 0 -47 25 -51 295 -47 222 4 244 6 290 27
99 44 148 116 148 216 0 88 -32 139 -111 180 l-34 16 35 34 c44 43 61 92 55
161 -6 76 -44 129 -116 162 -56 27 -61 27 -297 30 -183 2 -243 0 -252 -9z
m481 -104 c93 -44 87 -180 -9 -221 -18 -7 -84 -16 -148 -20 l-117 -7 0 138 0
138 119 -6 c83 -3 130 -10 155 -22z m48 -348 c46 -20 69 -54 71 -109 4 -116
-49 -148 -254 -156 l-139 -5 0 148 0 148 143 -5 c98 -3 153 -10 179 -21z"/>
</g>
</svg>
