<?xml version="1.0" standalone="no"?>
<!DOCTYPE svg PUBLIC "-//W3C//DTD SVG 20010904//EN"
 "http://www.w3.org/TR/2001/REC-SVG-20010904/DTD/svg10.dtd">
<svg version="1.0" xmlns="http://www.w3.org/2000/svg"
 width="260.000000pt" height="260.000000pt" viewBox="0 0 260.000000 260.000000"
 preserveAspectRatio="xMidYMid meet">
<metadata>
Created by potrace 1.11, written by Peter Selinger 2001-2013
</metadata>
<g transform="translate(0.000000,260.000000) scale(0.100000,-0.100000)"
fill="#000000" stroke="none">
<path d="M0 1300 l0 -1300 1300 0 1300 0 0 1300 0 1300 -1300 0 -1300 0 0
-1300z m2019 650 c102 -11 166 -27 284 -72 l77 -29 0 -95 0 -94 -67 33 c-225
112 -463 127 -627 39 -74 -39 -167 -137 -205 -213 -64 -131 -65 -310 -2 -444
36 -79 124 -171 197 -208 130 -66 298 -79 454 -35 l85 24 3 132 3 132 -121 0
-120 0 0 85 0 85 215 0 215 0 0 -274 0 -274 -108 -35 c-138 -46 -228 -61 -377
-61 -186 1 -320 43 -445 139 -79 61 -134 131 -181 230 -43 93 -59 167 -59 279
1 188 57 324 189 456 47 48 108 99 135 113 73 40 180 76 255 86 92 12 95 12
200 1z m-1306 -25 c167 -35 265 -138 275 -290 8 -123 -33 -208 -129 -267 l-51
-31 61 -22 c91 -33 163 -93 203 -170 33 -61 36 -183 8 -257 -38 -101 -152
-190 -278 -217 -31 -6 -158 -11 -312 -11 l-260 0 0 640 0 640 208 0 c141 0
229 -5 275 -15z"/>
<path d="M410 1587 l0 -197 88 0 c103 0 193 21 238 55 66 50 84 184 36 253
-38 53 -93 71 -235 79 l-127 6 0 -196z"/>
<path d="M410 1025 l0 -208 168 5 c215 7 265 26 313 120 39 76 19 161 -50 220
-55 47 -102 58 -282 65 l-149 6 0 -208z"/>
</g>
</svg>
